<?xml version="1.0" encoding="UTF-8" standalone="no"?>
<!DOCTYPE svg PUBLIC "-//W3C//DTD SVG 1.1//EN"
 "http://www.w3.org/Graphics/SVG/1.1/DTD/svg11.dtd">
<!-- Generated by graphviz version 2.30.1 (20180420.1509)
 -->
<!-- Title: G Pages: 1 -->
<svg width="166pt" height="358pt"
 viewBox="0.00 0.00 166.00 358.00" xmlns="http://www.w3.org/2000/svg" xmlns:xlink="http://www.w3.org/1999/xlink">
<g id="graph0" class="graph" transform="scale(1 1) rotate(0) translate(4 354)">
<title>G</title>
<polygon fill="white" stroke="white" points="-4,5 -4,-354 163,-354 163,5 -4,5"/>
<g id="clust1" class="cluster"><title>cluster_Global</title>
<path fill="none" stroke="gray" d="M20,-8C20,-8 138,-8 138,-8 144,-8 150,-14 150,-20 150,-20 150,-330 150,-330 150,-336 144,-342 138,-342 138,-342 20,-342 20,-342 14,-342 8,-336 8,-330 8,-330 8,-20 8,-20 8,-14 14,-8 20,-8"/>
<text text-anchor="middle" x="79" y="-329.2" font-family="Times,serif" font-size="11.00" fill="gray">Global</text>
</g>
<g id="clust2" class="cluster"><title>cluster_\Tatum</title>
<path fill="none" stroke="gray" d="M28,-16C28,-16 130,-16 130,-16 136,-16 142,-22 142,-28 142,-28 142,-302 142,-302 142,-308 136,-314 130,-314 130,-314 28,-314 28,-314 22,-314 16,-308 16,-302 16,-302 16,-28 16,-28 16,-22 22,-16 28,-16"/>
<text text-anchor="middle" x="79" y="-301.2" font-family="Times,serif" font-size="11.00" fill="gray">Tatum</text>
</g>
<g id="clust3" class="cluster"><title>cluster_\Tatum\Model</title>
<path fill="none" stroke="gray" d="M36,-24C36,-24 122,-24 122,-24 128,-24 134,-30 134,-36 134,-36 134,-274 134,-274 134,-280 128,-286 122,-286 122,-286 36,-286 36,-286 30,-286 24,-280 24,-274 24,-274 24,-36 24,-36 24,-30 30,-24 36,-24"/>
<text text-anchor="middle" x="79" y="-273.2" font-family="Times,serif" font-size="11.00" fill="gray">Model</text>
</g>
<g id="clust4" class="cluster"><title>cluster_\Tatum\Model\Request</title>
<path fill="none" stroke="gray" d="M44,-132C44,-132 114,-132 114,-132 120,-132 126,-138 126,-144 126,-144 126,-246 126,-246 126,-252 120,-258 114,-258 114,-258 44,-258 44,-258 38,-258 32,-252 32,-246 32,-246 32,-144 32,-144 32,-138 38,-132 44,-132"/>
<text text-anchor="middle" x="79" y="-245.2" font-family="Times,serif" font-size="11.00" fill="gray">Request</text>
</g>
<!-- \\Tatum\\Model\\Request\\TradeType -->
<g id="node1" class="node"><title>\\Tatum\\Model\\Request\\TradeType</title>
<polygon fill="none" stroke="black" points="117.5,-230 40.5,-230 40.5,-194 117.5,-194 117.5,-230"/>
<text text-anchor="middle" x="79" y="-209.2" font-family="Courier,monospace" font-size="11.00">TradeType</text>
</g>
<!-- \\Tatum\\Model\\Request\\Currency -->
<g id="node2" class="node"><title>\\Tatum\\Model\\Request\\Currency</title>
<polygon fill="none" stroke="black" points="114.5,-176 43.5,-176 43.5,-140 114.5,-140 114.5,-176"/>
<text text-anchor="middle" x="79" y="-155.2" font-family="Courier,monospace" font-size="11.00">Currency</text>
</g>
<!-- \\Tatum\\Model\\BlockAmount -->
<g id="node3" class="node"><title>\\Tatum\\Model\\BlockAmount</title>
<polygon fill="none" stroke="black" points="124.5,-122 33.5,-122 33.5,-86 124.5,-86 124.5,-122"/>
<text text-anchor="middle" x="79" y="-101.2" font-family="Courier,monospace" font-size="11.00">BlockAmount</text>
</g>
<!-- \\Tatum\\Model\\Fee -->
<g id="node4" class="node"><title>\\Tatum\\Model\\Fee</title>
<polygon fill="none" stroke="black" points="106,-68 52,-68 52,-32 106,-32 106,-68"/>
<text text-anchor="middle" x="79" y="-47.2" font-family="Courier,monospace" font-size="11.00">Fee</text>
</g>
</g>
</svg>
